<svg width="375" height="205" viewBox="0 0 375 205" fill="none" xmlns="http://www.w3.org/2000/svg">
<path d="M-9 171.291H375.168" stroke="#263238" stroke-width="0.820084" stroke-linecap="round" stroke-linejoin="round"/>
<path d="M119.499 171.307L99.2183 188.947L126.191 190.571L144.036 172.521L119.499 171.307Z" fill="white" stroke="#263238" stroke-width="0.820084" stroke-linecap="round" stroke-linejoin="round"/>
<path d="M144.036 172.521L170 173.735L153.77 192.597L126.191 190.571L144.036 172.521Z" fill="white" stroke="#263238" stroke-width="0.820084" stroke-linecap="round" stroke-linejoin="round"/>
<path d="M118.162 176.703L133.694 177.851" stroke="#263238" stroke-width="0.820084" stroke-linecap="round" stroke-linejoin="round"/>
<path d="M111.536 180.82L131.185 181.96" stroke="#263238" stroke-width="0.820084" stroke-linecap="round" stroke-linejoin="round"/>
<path d="M108.567 184.248L127.528 185.618" stroke="#263238" stroke-width="0.820084" stroke-linecap="round" stroke-linejoin="round"/>
<path d="M134.383 186.528L154.033 187.906" stroke="#263238" stroke-width="0.820084" stroke-linecap="round" stroke-linejoin="round"/>
<path d="M99.2183 188.947L98.8164 190.571L126.191 192.195V190.571L99.2183 188.947Z" fill="#263238" stroke="#263238" stroke-width="0.820084" stroke-linecap="round" stroke-linejoin="round"/>
<path d="M126.191 191.178V192.195L154.377 194.22L169.795 175.153L169.188 174.145L153.77 192.596L126.191 191.178Z" fill="#263238" stroke="#263238" stroke-width="0.820084" stroke-linecap="round" stroke-linejoin="round"/>
<path d="M83.0466 164.369C89.8313 164.369 95.3314 162.607 95.3314 160.433C95.3314 158.259 89.8313 156.497 83.0466 156.497C76.2618 156.497 70.7617 158.259 70.7617 160.433C70.7617 162.607 76.2618 164.369 83.0466 164.369Z" fill="white" stroke="black" stroke-width="0.820084" stroke-linecap="round" stroke-linejoin="round"/>
<path d="M84.2356 145.663L85.8758 142.219L86.5892 145.917L83.5221 174.891C83.5068 175.045 83.461 175.195 83.3874 175.331C83.3138 175.468 83.2139 175.589 83.0933 175.686C82.9728 175.784 82.8342 175.857 82.6854 175.9C82.5365 175.944 82.3805 175.958 82.2264 175.941V175.941C81.9155 175.908 81.6305 175.753 81.4337 175.51C81.237 175.267 81.1445 174.956 81.1767 174.645L84.2356 145.663Z" fill="white" stroke="black" stroke-width="0.820084" stroke-linecap="round" stroke-linejoin="round"/>
<path d="M81.2095 174.645C81.1944 174.946 81.2955 175.242 81.492 175.472C81.6885 175.701 81.9654 175.847 82.2657 175.878C82.5661 175.91 82.8671 175.825 83.1069 175.641C83.3467 175.458 83.507 175.189 83.5549 174.891L84.088 169.88L81.7425 169.659L81.2095 174.645Z" fill="white" stroke="black" stroke-width="0.820084" stroke-linecap="round" stroke-linejoin="round"/>
<path d="M82.2181 175.94C82.3722 175.957 82.5282 175.944 82.677 175.9C82.8259 175.856 82.9645 175.784 83.085 175.686C83.2056 175.588 83.3055 175.468 83.3791 175.331C83.4527 175.195 83.4985 175.045 83.5138 174.891L83.9075 171.2L81.562 170.93L81.1684 174.645C81.1362 174.956 81.2287 175.267 81.4254 175.509C81.6222 175.752 81.9073 175.907 82.2181 175.94V175.94Z" fill="white" stroke="black" stroke-width="0.820084" stroke-linecap="round" stroke-linejoin="round"/>
<path d="M84.2356 145.663L84.2192 145.852L86.5647 146.122L86.5811 145.917L85.8676 142.219L84.2356 145.663Z" fill="white" stroke="black" stroke-width="0.820084" stroke-linecap="round" stroke-linejoin="round"/>
<path d="M91.5588 148.189L94.1338 145.376L93.732 149.124L82.2508 175.891C82.1263 176.178 81.8938 176.404 81.6037 176.521C81.3136 176.638 80.9893 176.635 80.7009 176.515V176.515C80.4141 176.39 80.1879 176.158 80.0712 175.867C79.9546 175.577 79.9569 175.253 80.0776 174.965L91.5588 148.189Z" fill="black" stroke="black" stroke-width="0.820084" stroke-linecap="round" stroke-linejoin="round"/>
<path d="M80.0532 174.965C79.9303 175.253 79.9269 175.578 80.0438 175.869C80.1607 176.16 80.3882 176.392 80.6764 176.515C80.9646 176.638 81.2898 176.641 81.5805 176.524C81.8712 176.407 82.1035 176.18 82.2264 175.892L84.211 171.266L82.0296 170.356L80.0532 174.965Z" fill="white" stroke="black" stroke-width="0.820084" stroke-linecap="round" stroke-linejoin="round"/>
<path d="M80.6763 176.515C80.9647 176.635 81.2891 176.638 81.5792 176.521C81.8692 176.404 82.1017 176.178 82.2263 175.891L83.6696 172.505L81.5046 171.553L80.0284 174.989C79.9167 175.278 79.9219 175.599 80.0429 175.884C80.1638 176.168 80.3911 176.395 80.6763 176.515V176.515Z" fill="white" stroke="black" stroke-width="0.820084" stroke-linecap="round" stroke-linejoin="round"/>
<path d="M91.5587 148.189L91.4849 148.361L93.6499 149.312L93.7319 149.124L94.1337 145.376L91.5587 148.189Z" fill="white" stroke="black" stroke-width="0.820084" stroke-linecap="round" stroke-linejoin="round"/>
<path d="M80.8404 173.685L78.4785 173.603L79.4052 144.482C79.4094 144.327 79.4443 144.175 79.5077 144.034C79.5711 143.892 79.6618 143.765 79.7747 143.659C79.8875 143.553 80.0202 143.471 80.1651 143.416C80.31 143.362 80.4642 143.337 80.6189 143.342V143.342C80.7737 143.346 80.926 143.381 81.0672 143.445C81.2085 143.508 81.3357 143.599 81.4417 143.711C81.5477 143.824 81.6302 143.957 81.6847 144.102C81.7391 144.247 81.7643 144.401 81.7589 144.556L80.8404 173.685Z" fill="black" stroke="black" stroke-width="0.820084" stroke-linecap="round" stroke-linejoin="round"/>
<path d="M81.7589 144.556C81.7452 144.259 81.62 143.978 81.4081 143.769C81.1963 143.56 80.9135 143.439 80.6162 143.43C80.3189 143.42 80.0291 143.524 79.8046 143.719C79.5801 143.914 79.4375 144.186 79.4052 144.482L79.2412 149.517L81.6031 149.567L81.7589 144.556Z" fill="white" stroke="black" stroke-width="0.820084" stroke-linecap="round" stroke-linejoin="round"/>
<path d="M80.619 143.342C80.4643 143.337 80.31 143.362 80.1651 143.416C80.0202 143.471 79.8875 143.553 79.7747 143.659C79.6619 143.765 79.5711 143.892 79.5077 144.034C79.4443 144.175 79.4095 144.327 79.4052 144.482L79.2822 148.197L81.6441 148.287L81.7589 144.556C81.7643 144.401 81.7391 144.247 81.6847 144.102C81.6303 143.957 81.5477 143.824 81.4417 143.711C81.3357 143.599 81.2085 143.508 81.0673 143.445C80.9261 143.381 80.7737 143.346 80.619 143.342V143.342Z" fill="white" stroke="black" stroke-width="0.820084" stroke-linecap="round" stroke-linejoin="round"/>
<path d="M83.0464 164.369C76.2561 164.369 70.7451 162.606 70.7451 160.433V188.242C70.7451 190.415 76.2397 192.178 83.0464 192.178C89.8531 192.178 95.3476 190.415 95.3476 188.242V160.433C95.323 162.606 89.8285 164.369 83.0464 164.369Z" fill="black" stroke="black" stroke-width="0.820084" stroke-linecap="round" stroke-linejoin="round"/>
<path d="M206.78 126.957C205.304 140.259 204.394 158.94 204.32 171.324H285.311C285.229 158.908 284.319 140.259 282.851 126.957C281.309 113.057 285.631 108.095 288.411 91.7427C291.191 75.3902 289.65 40.4546 287.181 37.0513C286.058 35.5095 283.409 35.0503 280.842 35.0093C278.992 41.2738 275.434 46.8993 270.566 51.2551C257.699 62.7937 233.892 66.1151 217.261 50.3695C212.879 46.23 209.815 40.8898 208.453 35.0175C205.993 35.0913 203.533 35.5751 202.434 37.0513C199.974 40.4546 198.415 75.3656 201.195 91.7427C203.976 108.12 208.322 113.057 206.78 126.957Z" fill="black" stroke="black" stroke-width="0.820084" stroke-linecap="round" stroke-linejoin="round"/>
<path d="M278.849 15.1136C281.646 29.6045 277.611 41.996 268.648 50.0328C256.756 60.6939 234.737 63.761 219.402 49.2127C204.066 34.6644 211.775 11.1116 217.671 11.1116C223.568 11.1116 277.833 9.93892 278.849 15.1136Z" fill="black" stroke="black" stroke-width="0.820084" stroke-linecap="round" stroke-linejoin="round"/>
<path d="M197.153 170.569C197.153 170.569 188.697 171.553 187.517 171.553C186.336 171.553 185.745 172.931 187.32 174.308C188.894 175.686 194.208 174.899 194.208 174.899L197.153 170.569Z" fill="white" stroke="black" stroke-width="0.820084" stroke-linecap="round" stroke-linejoin="round"/>
<path d="M196.3 61.9326V70.8141C196.3 70.8141 181.358 78.4163 175.06 80.7781C168.761 83.14 164.308 85.2394 163.521 88.9052C162.734 92.5709 155.132 126.678 154.607 130.869C154.082 135.059 150.145 139.004 150.145 141.358C150.08 142.519 150.259 143.681 150.67 144.769C150.67 144.769 152.507 153.421 158.797 156.833C165.087 160.244 170.336 156.013 173.223 153.684C176.109 151.355 178.963 145.294 178.963 145.294C178.963 145.294 176.864 165.493 176.601 167.322C176.434 168.627 176.347 169.942 176.339 171.258H251.606C251.455 155.578 252.244 139.902 253.968 124.316C255.001 114.664 253.148 84.4521 250.294 80.0318C247.44 75.6116 239.805 73.217 233.253 71.38C226.7 69.543 218.303 67.9684 218.303 67.9684L218.04 64.5569L196.3 61.9326Z" fill="#FF5B42" stroke="black" stroke-width="0.820084" stroke-linecap="round" stroke-linejoin="round"/>
<path d="M173.69 113.081L172.698 107.037" stroke="black" stroke-width="0.820084" stroke-linecap="round" stroke-linejoin="round"/>
<path d="M178.996 145.327L174.313 116.854" stroke="black" stroke-width="0.820084" stroke-linecap="round" stroke-linejoin="round"/>
<path d="M206.534 92.0871C224.576 94.3423 243.29 77.4896 245.636 75.9478C242.093 73.9386 237.476 72.5445 233.285 71.3718C226.725 69.5348 218.335 67.9602 218.335 67.9602L218.073 64.5487L196.299 61.9326V70.8141C196.299 70.8141 186.458 75.8166 179.397 78.9657C186.7 86.2808 196.266 90.906 206.534 92.0871Z" fill="white" stroke="black" stroke-width="0.820084" stroke-linecap="round" stroke-linejoin="round"/>
<path d="M196.3 70.814C196.056 74.4184 195.621 78.0072 194.996 81.5653" stroke="black" stroke-width="0.820084" stroke-linecap="round" stroke-linejoin="round"/>
<path d="M218.335 67.96C218.335 67.96 218.86 75.5621 219.647 78.1864" stroke="black" stroke-width="0.820084" stroke-linecap="round" stroke-linejoin="round"/>
<path d="M225.831 4.9366C221.009 2.18112 210.963 0.196513 205.526 1.32003C199.728 2.50915 192.125 5.01861 186.139 10.2589C174.928 20.1 179.061 35.0501 180.046 36.4196L181.03 37.7974C180.561 41.5814 179.838 45.3295 178.865 49.0161C177.093 56.0934 185.745 62.9575 196.365 64.9421C206.985 66.9267 224.1 65.3358 235.311 61.998C246.522 58.6603 248.506 49.7952 244.562 36.6164C240.617 23.4377 236.361 11.5055 229.874 7.38045C228.422 6.45375 227.069 5.64187 225.831 4.9366Z" fill="#B76F00" stroke="black" stroke-width="0.820084" stroke-linecap="round" stroke-linejoin="round"/>
<path d="M204.722 17.1311C205.528 16.9265 206.352 16.8002 207.182 16.7539" stroke="black" stroke-width="0.820084" stroke-linecap="round" stroke-linejoin="round"/>
<path d="M183.58 37.0102C183.58 37.0102 180.833 36.0343 182.006 32.0897C182.965 28.8914 193.659 21.0268 201.958 17.9761" stroke="black" stroke-width="0.820084" stroke-linecap="round" stroke-linejoin="round"/>
<path d="M202.409 10.2671C203.311 10.1687 204.246 10.1031 205.222 10.0703" stroke="black" stroke-width="0.820084" stroke-linecap="round" stroke-linejoin="round"/>
<path d="M179.619 28.9899C179.619 28.9899 182.727 13.9332 199.851 10.6938" stroke="black" stroke-width="0.820084" stroke-linecap="round" stroke-linejoin="round"/>
<path d="M212.972 7.07715C211.43 9.93104 209.593 13.8018 209.15 16.7541" stroke="black" stroke-width="0.820084" stroke-linecap="round" stroke-linejoin="round"/>
<path d="M215.252 3.18164C215.252 3.18164 215.014 3.55067 214.628 4.19034" stroke="black" stroke-width="0.820084" stroke-linecap="round" stroke-linejoin="round"/>
<path d="M226.085 13.8589C232.238 19.5382 236.952 26.5993 239.838 34.4594" stroke="black" stroke-width="0.820084" stroke-linecap="round" stroke-linejoin="round"/>
<path d="M219.582 9.08643C221.291 10.0333 222.903 11.1458 224.395 12.4078" stroke="black" stroke-width="0.820084" stroke-linecap="round" stroke-linejoin="round"/>
<path d="M242.651 54.5845C241.094 57.3223 238.532 59.3461 235.508 60.2267" stroke="black" stroke-width="0.820084" stroke-linecap="round" stroke-linejoin="round"/>
<path d="M226.659 22.2651C226.659 22.2651 244.562 39.3721 244.168 48.8194C244.127 49.9003 243.965 50.9732 243.684 52.0178" stroke="black" stroke-width="0.820084" stroke-linecap="round" stroke-linejoin="round"/>
<path d="M230.005 47.0317C230.005 47.0317 235.508 50.1727 233.154 55.8804C230.801 61.5882 227.053 59.9809 227.053 59.9809" stroke="black" stroke-width="0.820084" stroke-linecap="round" stroke-linejoin="round"/>
<path d="M208.601 20.4771C204.185 24.9304 199.173 28.7501 193.708 31.827L184.252 37.2642C184.252 37.2642 189.927 58.2993 192.527 62.3177C195.127 66.3361 199.613 72.2407 206.001 72.2407C212.39 72.2407 221.837 63.023 222.304 61.3746C222.772 59.7263 224.904 51.2056 224.904 51.2056C225.971 50.5322 226.797 49.5391 227.266 48.3681C227.577 47.0512 227.737 45.7029 227.741 44.3497C227.741 44.3497 217.08 34.1889 213.324 29.6948C211.064 27.0248 209.448 23.871 208.601 20.4771V20.4771Z" fill="white" stroke="black" stroke-width="0.820084" stroke-linecap="round" stroke-linejoin="round"/>
<path d="M200.941 42.1684L185.188 41.1186C185.049 41.1084 184.91 41.1304 184.781 41.1827C184.653 41.235 184.538 41.3163 184.446 41.4203C184.354 41.5242 184.287 41.6481 184.251 41.7821C184.214 41.9161 184.209 42.0567 184.236 42.193C184.712 44.5794 185.926 49.9346 187.566 51.2139C189.698 52.8541 195.988 52.5998 197.267 52.5998C199.982 52.5998 201.565 45.2601 201.737 44.44C201.741 44.3881 201.741 44.336 201.737 44.2842V43.1033C201.745 42.8763 201.668 42.6545 201.52 42.4816C201.373 42.3086 201.167 42.1969 200.941 42.1684V42.1684Z" stroke="black" stroke-width="1.64017" stroke-linecap="round" stroke-linejoin="round"/>
<path d="M205.862 42.6196L221.648 43.046C221.785 43.0513 221.919 43.0879 222.04 43.1531C222.16 43.2184 222.264 43.3104 222.343 43.4222C222.423 43.5339 222.475 43.6624 222.497 43.7977C222.519 43.933 222.509 44.0714 222.469 44.2024C221.78 46.5314 220.066 51.7471 218.311 52.8624C216.039 54.314 209.798 53.4529 208.527 53.3381C205.821 53.0839 204.927 45.6293 204.837 44.7928C204.828 44.7412 204.828 44.6886 204.837 44.637L204.919 43.4643C204.925 43.3468 204.954 43.2318 205.005 43.1257C205.056 43.0197 205.127 42.9247 205.215 42.8462C205.303 42.7677 205.405 42.7073 205.516 42.6684C205.627 42.6295 205.744 42.6129 205.862 42.6196Z" stroke="black" stroke-width="1.64017" stroke-linecap="round" stroke-linejoin="round"/>
<path d="M200.933 42.1685L205.854 42.6195" stroke="black" stroke-width="1.64017" stroke-linecap="round" stroke-linejoin="round"/>
<path d="M202.057 44.0298L204.853 44.12" stroke="black" stroke-width="1.64017" stroke-linecap="round" stroke-linejoin="round"/>
<path d="M222.666 43.5955L225.2 41.939" stroke="black" stroke-width="1.64017" stroke-linecap="round" stroke-linejoin="round"/>
<path d="M213.242 46.1293C213.242 47.2364 212.734 48.1385 212.111 48.1385C211.487 48.1385 210.971 47.2364 210.971 46.1293C210.971 45.0222 211.479 44.1201 212.111 44.1201C212.742 44.1201 213.242 45.014 213.242 46.1293Z" fill="#263238"/>
<path d="M195.947 45.6866C195.947 46.8019 195.438 47.6958 194.815 47.6958C194.192 47.6958 193.675 46.8019 193.675 45.6866C193.675 44.5712 194.184 43.6855 194.815 43.6855C195.447 43.6855 195.947 44.5712 195.947 45.6866Z" fill="#263238"/>
<path d="M201.679 46.9824C201.679 46.9824 199.711 54.847 199.448 55.7655C199.186 56.684 200.629 57.6025 203.254 56.684" stroke="black" stroke-width="0.820084" stroke-linecap="round" stroke-linejoin="round"/>
<path d="M199.449 61.0139C199.449 61.0139 204.172 62.1866 207.846 60.7515" stroke="black" stroke-width="0.820084" stroke-linecap="round" stroke-linejoin="round"/>
<path d="M207.846 41.2092C207.846 41.2092 210.462 38.1913 218.729 41.0779" stroke="black" stroke-width="0.820084" stroke-linecap="round" stroke-linejoin="round"/>
<path d="M199.843 40.553C199.843 40.553 194.996 36.7478 189.485 39.7329" stroke="black" stroke-width="0.820084" stroke-linecap="round" stroke-linejoin="round"/>
<path d="M240.191 99.8694C240.191 99.8694 239.912 131.246 239.371 137.462C238.829 143.678 240.191 149.091 246.292 152.338C252.394 155.586 260.143 155.315 262.636 154.503C265.129 153.691 273.995 149.091 272.887 142.063C271.78 135.035 264.301 111.498 260.972 100.411C257.642 89.3231 257.093 84.1812 252.656 80.6548C248.219 77.1285 246.866 76.1772 242.987 78.8835" fill="#FF5B42"/>
<path d="M240.191 99.8694C240.191 99.8694 239.912 131.246 239.371 137.462C238.829 143.678 240.191 149.091 246.292 152.338C252.394 155.586 260.143 155.315 262.636 154.503C265.129 153.691 273.995 149.091 272.887 142.063C271.78 135.035 264.301 111.498 260.972 100.411C257.642 89.3231 257.093 84.1812 252.656 80.6548C248.219 77.1285 246.866 76.1772 242.987 78.8835" stroke="black" stroke-width="0.820084" stroke-linecap="round" stroke-linejoin="round"/>
<path d="M143.06 167.092L146.471 162.114C146.471 162.114 155.919 159.227 159.593 157.128C163.267 155.028 165.628 149 161.954 145.064C158.28 141.128 152.253 139.824 148.054 142.965C143.855 146.106 142.313 151.887 139.927 153.454C137.541 155.02 127.864 157.39 125.239 157.915C122.615 158.44 121.565 160.539 122.09 162.376C122.615 164.213 124.452 171.553 125.764 172.602C127.076 173.652 131.505 176.801 134.678 176.801C137.852 176.801 140.977 173.127 142.059 172.865C143.142 172.602 145.946 169.978 143.06 167.092Z" fill="white" stroke="black" stroke-width="0.820084" stroke-linecap="round" stroke-linejoin="round"/>
<path d="M136.836 158.694C136.836 158.694 135.597 170.249 136.015 170.692C136.48 171.037 137.014 171.276 137.581 171.393C138.148 171.509 138.733 171.499 139.296 171.364C140.641 171.028 142.429 162.286 142.429 160.49C142.291 159.04 141.873 157.631 141.198 156.34" stroke="black" stroke-width="0.820084" stroke-linecap="round" stroke-linejoin="round"/>
<path d="M128.979 159.588C128.979 159.588 132.792 166.436 134.252 167.444L135.712 168.453" stroke="black" stroke-width="0.820084" stroke-linecap="round" stroke-linejoin="round"/>
<path d="M124.829 163.295C124.829 163.295 128.642 170.356 130.57 171.258C132.497 172.16 136.852 173.833 141.231 173.497" stroke="black" stroke-width="0.820084" stroke-linecap="round" stroke-linejoin="round"/>
<path d="M129.594 148.55L134.26 167.412L135.605 167.854L135.835 165.837L131.841 147.984C131.802 147.832 131.733 147.69 131.638 147.565C131.543 147.441 131.423 147.338 131.287 147.261C131.15 147.184 130.999 147.136 130.844 147.119C130.688 147.103 130.531 147.118 130.381 147.164V147.164C130.097 147.25 129.857 147.441 129.71 147.699C129.564 147.957 129.522 148.262 129.594 148.55V148.55Z" fill="#263238" stroke="black" stroke-width="0.820084" stroke-linecap="round" stroke-linejoin="round"/>
<path d="M127.864 173.948C127.864 173.948 132.784 175.629 134.031 175.85C135.611 176.124 137.236 175.971 138.738 175.408" stroke="black" stroke-width="0.820084" stroke-linecap="round" stroke-linejoin="round"/>
<path d="M143.06 167.092C142.83 167.466 142.514 167.78 142.139 168.008C141.764 168.236 141.341 168.372 140.903 168.404" stroke="black" stroke-width="0.820084" stroke-linecap="round" stroke-linejoin="round"/>
<path d="M244.406 144.621C244.406 144.621 215.703 163.483 214.112 164.303C212.521 165.124 196.8 169.413 194.43 170.79C192.06 172.168 190.493 178.073 189.509 180.033C188.525 181.993 187.541 187.512 187.541 187.512C187.893 187.878 188.325 188.157 188.803 188.328C189.281 188.499 189.792 188.556 190.296 188.496C192.068 188.299 194.036 180.82 194.036 180.82L197.964 175.12C197.964 175.12 195.406 180.82 195.406 182.198C195.406 183.575 194.43 187.315 194.43 187.938C194.43 188.562 195.602 189.316 197.177 188.529C198.752 187.741 199.932 181.837 199.932 181.837L203.278 176.334C203.278 176.334 200.72 184.002 199.932 185.576C199.145 187.151 198.948 187.741 201.113 187.545C203.278 187.348 203.475 184.986 204.066 183.444C204.656 181.902 206.034 178.926 206.034 178.926L209.962 176.17C209.962 176.17 207.412 181.673 206.624 183.051C205.837 184.428 205.05 184.822 207.805 184.822C210.561 184.822 212.324 178.729 212.324 178.729C213.348 177.992 214.333 177.204 215.276 176.367C216.096 175.547 219.016 171.053 219.016 171.053C219.016 171.053 254.025 159.252 258.158 157.284C262.292 155.315 262.677 152.363 261.103 149.813C259.528 147.262 252.606 141.259 244.406 144.621Z" fill="white" stroke="black" stroke-width="0.820084" stroke-linecap="round" stroke-linejoin="round"/>
<path d="M247.309 203.832L221.952 182.673H267.172L247.309 203.832Z" fill="white" stroke="black" stroke-width="0.820084" stroke-linecap="round" stroke-linejoin="round"/>
<path d="M248.375 201.273L238.083 191.989H254.427L248.375 201.273Z" fill="black" stroke="black" stroke-width="0.820084" stroke-linecap="round" stroke-linejoin="round"/>
<path d="M323.995 203.831H247.309L259.003 155.176H335.689L323.995 203.831Z" fill="white" stroke="black" stroke-width="0.820084" stroke-linecap="round" stroke-linejoin="round"/>
<path d="M329.563 180.705C315.351 182.96 301.681 191.366 284.894 196.287C272.693 199.84 260.159 202.123 247.49 203.102L247.309 203.856H323.995L329.563 180.705Z" fill="black" stroke="black" stroke-width="0.820084" stroke-linecap="round" stroke-linejoin="round"/>
<path d="M293.431 184.248C296.397 184.248 298.802 182.408 298.802 180.139C298.802 177.87 296.397 176.03 293.431 176.03C290.464 176.03 288.059 177.87 288.059 180.139C288.059 182.408 290.464 184.248 293.431 184.248Z" fill="white" stroke="black" stroke-width="0.820084" stroke-linecap="round" stroke-linejoin="round"/>
</svg>
